<?xml version="1.0" encoding="UTF-8"?>
<svg width="1008px" height="512px" viewBox="0 0 1008 512" version="1.1" xmlns="http://www.w3.org/2000/svg" xmlns:xlink="http://www.w3.org/1999/xlink">
    <!-- Generator: Sketch 3.6.1 (26313) - http://www.bohemiancoding.com/sketch -->
    <title>logo@2x</title>
    <desc>Created with Sketch.</desc>
    <defs></defs>
    <g id="Page-1" stroke="none" stroke-width="1" fill="none" fill-rule="evenodd">
        <g id="logo">
            <g id="Group-2">
                <g id="alarm" transform="translate(284.041237, 36.385787)">
                    <g id="Layer_1">
                        <ellipse id="Oval" fill="#F6A623" cx="219.958763" cy="220.047377" rx="219.958763" ry="220.047377"></ellipse>
                        <path d="M304.824742,346.184772 L135.092784,346.184772 L135.092784,226.631472 C135.092784,180.88934 172.156701,143.810491 217.880412,143.810491 L222.037113,143.810491 C267.760825,143.810491 304.824742,180.88934 304.824742,226.631472 L304.824742,346.184772 L304.824742,346.184772 Z" id="Shape" fill="#FF5858"></path>
                        <path d="M323.183505,364.204399 L116.734021,364.204399 L116.734021,343.06599 C116.734021,333.016582 125.047423,324.699831 135.092784,324.699831 L304.824742,324.699831 C314.870103,324.699831 323.183505,333.016582 323.183505,343.06599 L323.183505,364.204399 L323.183505,364.204399 Z" id="Shape" fill="#161F26"></path>
                        <g id="Group" transform="translate(133.360825, 64.974619)">
                            <path d="M64.7752577,136.360068 C52.9979381,147.449069 37.756701,151.260914 31.1752577,145.02335 C24.5938144,138.785787 28.7505155,124.578003 40.5278351,113.489002 C52.3051546,102.4 67.5463918,98.5881557 74.1278351,104.825719 C80.7092784,111.063283 76.5525773,125.271066 64.7752577,136.360068 L64.7752577,136.360068 Z" id="Shape" fill="#FFFFFF"></path>
                            <path d="M83.8268041,0.519796954 C79.6701031,0.519796954 76.2061856,3.63857868 76.2061856,7.45042301 L76.2061856,44.5292724 C76.2061856,48.3411168 79.6701031,51.4598985 83.8268041,51.4598985 C87.9835052,51.4598985 91.4474227,48.3411168 91.4474227,44.5292724 L91.4474227,7.45042301 C91.4474227,3.63857868 87.9835052,0.519796954 83.8268041,0.519796954 L83.8268041,0.519796954 Z" id="Shape" fill="#6F6C3D"></path>
                            <path d="M164.882474,33.4402707 C161.764948,30.6680203 157.261856,30.6680203 154.14433,33.4402707 L126.086598,59.7766497 C122.969072,62.5489002 122.969072,67.0538071 126.086598,69.8260575 C129.204124,72.598308 133.707216,72.598308 136.824742,69.8260575 L164.882474,43.4896785 C168,40.7174281 168,36.2125212 164.882474,33.4402707 L164.882474,33.4402707 Z" id="Shape" fill="#6F6C3D"></path>
                            <path d="M2.77113402,33.4402707 C5.88865979,30.6680203 10.3917526,30.6680203 13.5092784,33.4402707 L41.5670103,59.7766497 C44.6845361,62.5489002 44.6845361,67.0538071 41.5670103,69.8260575 C38.4494845,72.598308 33.9463918,72.598308 30.828866,69.8260575 L2.77113402,43.4896785 C1.40998324e-14,40.7174281 1.40998324e-14,36.2125212 2.77113402,33.4402707 L2.77113402,33.4402707 Z" id="Shape" fill="#6F6C3D"></path>
                        </g>
                    </g>
                </g>
                <text id="S" font-family="AmericanTypewriter, American Typewriter" font-size="443.560068" font-weight="normal" fill="#FF5858">
                    <tspan x="0" y="401">S</tspan>
                </text>
                <text id="S" font-family="AmericanTypewriter, American Typewriter" font-size="443.560068" font-weight="normal" fill="#FF5858">
                    <tspan x="723.958763" y="401">S</tspan>
                </text>
            </g>
        </g>
    </g>
</svg>